<mxfile host="app.diagrams.net" modified="2021-09-15T12:59:28.550Z" agent="5.0 (Windows NT 10.0; Win64; x64) AppleWebKit/537.36 (KHTML, like Gecko) Chrome/93.0.4577.63 Safari/537.36" etag="JKmbaqGcIGXivDwLLQJa" version="14.9.2" type="github">
  <diagram id="1AHfdOlfDi8fP-BxkIWJ" name="Page-1">
    <mxGraphModel dx="1422" dy="705" grid="1" gridSize="10" guides="1" tooltips="1" connect="1" arrows="1" fold="1" page="1" pageScale="1" pageWidth="827" pageHeight="1169" math="0" shadow="0">
      <root>
        <mxCell id="0" />
        <mxCell id="1" parent="0" />
        <mxCell id="AfSO4xSQXq2QMHK5xktK-30" style="edgeStyle=orthogonalEdgeStyle;rounded=0;orthogonalLoop=1;jettySize=auto;html=1;entryX=0.5;entryY=0;entryDx=0;entryDy=0;" edge="1" parent="1" source="AfSO4xSQXq2QMHK5xktK-1" target="AfSO4xSQXq2QMHK5xktK-8">
          <mxGeometry relative="1" as="geometry" />
        </mxCell>
        <mxCell id="AfSO4xSQXq2QMHK5xktK-1" value="Utilisateur non connecté" style="shape=umlActor;verticalLabelPosition=bottom;verticalAlign=top;html=1;" vertex="1" parent="1">
          <mxGeometry x="395" y="90" width="30" height="60" as="geometry" />
        </mxCell>
        <mxCell id="AfSO4xSQXq2QMHK5xktK-6" value="&lt;font style=&quot;font-size: 24px&quot;&gt;Page connexion&lt;/font&gt;" style="text;html=1;strokeColor=none;fillColor=none;align=center;verticalAlign=middle;whiteSpace=wrap;rounded=0;" vertex="1" parent="1">
          <mxGeometry x="310" y="30" width="190" height="20" as="geometry" />
        </mxCell>
        <mxCell id="AfSO4xSQXq2QMHK5xktK-11" style="edgeStyle=orthogonalEdgeStyle;rounded=0;orthogonalLoop=1;jettySize=auto;html=1;exitX=0;exitY=0.5;exitDx=0;exitDy=0;entryX=1;entryY=0.5;entryDx=0;entryDy=0;" edge="1" parent="1" source="AfSO4xSQXq2QMHK5xktK-8" target="AfSO4xSQXq2QMHK5xktK-19">
          <mxGeometry relative="1" as="geometry">
            <mxPoint x="300" y="250" as="targetPoint" />
          </mxGeometry>
        </mxCell>
        <mxCell id="AfSO4xSQXq2QMHK5xktK-18" style="edgeStyle=orthogonalEdgeStyle;rounded=0;orthogonalLoop=1;jettySize=auto;html=1;exitX=0.5;exitY=1;exitDx=0;exitDy=0;entryX=0.5;entryY=0;entryDx=0;entryDy=0;" edge="1" parent="1" source="AfSO4xSQXq2QMHK5xktK-8" target="AfSO4xSQXq2QMHK5xktK-15">
          <mxGeometry relative="1" as="geometry">
            <mxPoint x="410" y="330" as="targetPoint" />
          </mxGeometry>
        </mxCell>
        <mxCell id="AfSO4xSQXq2QMHK5xktK-8" value="J&#39;ai un compte existant sur le site Learn@Home" style="ellipse;whiteSpace=wrap;html=1;" vertex="1" parent="1">
          <mxGeometry x="350" y="210" width="120" height="80" as="geometry" />
        </mxCell>
        <mxCell id="AfSO4xSQXq2QMHK5xktK-12" value="Non" style="text;html=1;align=center;verticalAlign=middle;resizable=0;points=[];autosize=1;strokeColor=none;" vertex="1" parent="1">
          <mxGeometry x="310" y="230" width="40" height="20" as="geometry" />
        </mxCell>
        <mxCell id="AfSO4xSQXq2QMHK5xktK-13" value="Oui" style="text;html=1;align=center;verticalAlign=middle;resizable=0;points=[];autosize=1;strokeColor=none;" vertex="1" parent="1">
          <mxGeometry x="414" y="340" width="30" height="20" as="geometry" />
        </mxCell>
        <mxCell id="AfSO4xSQXq2QMHK5xktK-16" style="edgeStyle=orthogonalEdgeStyle;rounded=0;orthogonalLoop=1;jettySize=auto;html=1;exitX=0.5;exitY=1;exitDx=0;exitDy=0;entryX=0.5;entryY=0;entryDx=0;entryDy=0;" edge="1" parent="1" source="AfSO4xSQXq2QMHK5xktK-15" target="AfSO4xSQXq2QMHK5xktK-28">
          <mxGeometry relative="1" as="geometry">
            <mxPoint x="410" y="450" as="targetPoint" />
          </mxGeometry>
        </mxCell>
        <mxCell id="AfSO4xSQXq2QMHK5xktK-15" value="Je connais mon adresse e-mail et mon mot de passe" style="ellipse;whiteSpace=wrap;html=1;" vertex="1" parent="1">
          <mxGeometry x="350" y="410" width="120" height="80" as="geometry" />
        </mxCell>
        <mxCell id="AfSO4xSQXq2QMHK5xktK-19" value="&lt;span&gt;Je clique sur créer un compte, je suis redirigé vers la page de création de compte&lt;/span&gt;" style="rounded=1;whiteSpace=wrap;html=1;" vertex="1" parent="1">
          <mxGeometry x="80" y="210" width="140" height="80" as="geometry" />
        </mxCell>
        <mxCell id="AfSO4xSQXq2QMHK5xktK-20" value="Oui" style="text;html=1;align=center;verticalAlign=middle;resizable=0;points=[];autosize=1;strokeColor=none;" vertex="1" parent="1">
          <mxGeometry x="414" y="550" width="30" height="20" as="geometry" />
        </mxCell>
        <mxCell id="AfSO4xSQXq2QMHK5xktK-24" value="Si j&#39;ai oublié mon mot de passe, je clique sur mot de passe oublié afin d&#39;accéder au service de récupération de mot de passe.&lt;br&gt;Si j&#39;ai oublié mon adresse e-mail, je fais le nécessaire pour la retrouver" style="rounded=1;whiteSpace=wrap;html=1;" vertex="1" parent="1">
          <mxGeometry x="610" y="390" width="160" height="120" as="geometry" />
        </mxCell>
        <mxCell id="AfSO4xSQXq2QMHK5xktK-26" value="" style="endArrow=classic;html=1;entryX=0;entryY=0.5;entryDx=0;entryDy=0;exitX=1;exitY=0.5;exitDx=0;exitDy=0;" edge="1" parent="1" source="AfSO4xSQXq2QMHK5xktK-15" target="AfSO4xSQXq2QMHK5xktK-24">
          <mxGeometry width="50" height="50" relative="1" as="geometry">
            <mxPoint x="450" y="480" as="sourcePoint" />
            <mxPoint x="510" y="530" as="targetPoint" />
          </mxGeometry>
        </mxCell>
        <mxCell id="AfSO4xSQXq2QMHK5xktK-28" value="&lt;span style=&quot;color: rgb(0 , 0 , 0) ; font-family: &amp;#34;helvetica&amp;#34; ; font-size: 12px ; font-style: normal ; font-weight: 400 ; letter-spacing: normal ; text-align: center ; text-indent: 0px ; text-transform: none ; word-spacing: 0px ; background-color: rgb(248 , 249 , 250) ; display: inline ; float: none&quot;&gt;Je saisis mon adresse e-mail et mon mot de passe afin de me connecter et d&#39;arriver sur la page Dashboard&lt;/span&gt;" style="rounded=1;whiteSpace=wrap;html=1;" vertex="1" parent="1">
          <mxGeometry x="315" y="650" width="190" height="80" as="geometry" />
        </mxCell>
        <mxCell id="AfSO4xSQXq2QMHK5xktK-29" value="Non" style="text;html=1;align=center;verticalAlign=middle;resizable=0;points=[];autosize=1;strokeColor=none;" vertex="1" parent="1">
          <mxGeometry x="505" y="430" width="40" height="20" as="geometry" />
        </mxCell>
      </root>
    </mxGraphModel>
  </diagram>
</mxfile>
